<svg id="svg" version="1.1" xmlns="http://www.w3.org/2000/svg" xmlns:xlink="http://www.w3.org/1999/xlink" width="400" height="360.4166666666667" viewBox="0, 0, 400,360.4166666666667"><g id="svgg"><path id="path0" d="M0.000 45.807 L 0.000 91.614 0.863 91.614 C 2.090 91.614,2.164 91.191,2.164 84.215 L 2.164 77.957 3.246 77.187 C 4.267 76.460,4.328 76.278,4.328 73.957 C 4.328 71.733,4.414 71.442,5.230 70.908 C 6.037 70.379,6.132 70.074,6.132 67.992 C 6.132 65.826,6.206 65.611,7.214 64.866 C 8.227 64.117,8.296 63.914,8.296 61.677 C 8.296 59.441,8.365 59.237,9.378 58.488 C 10.214 57.870,10.460 57.407,10.460 56.451 C 10.460 55.770,10.709 55.004,11.013 54.748 C 12.443 53.547,12.624 53.250,12.624 52.107 C 12.624 51.435,12.827 50.709,13.075 50.494 C 16.094 47.879,16.592 47.261,16.592 46.128 C 16.592 45.160,16.978 44.578,18.756 42.865 C 20.479 41.204,20.920 40.554,20.920 39.671 C 20.920 38.003,38.009 20.920,39.677 20.920 C 40.553 20.920,41.209 20.474,42.865 18.756 C 44.529 17.028,45.174 16.592,46.064 16.592 C 47.180 16.592,49.319 14.871,50.162 13.295 C 50.416 12.822,50.925 12.624,51.892 12.624 C 52.960 12.624,53.475 12.385,54.226 11.542 C 54.943 10.738,55.508 10.460,56.425 10.460 C 57.386 10.460,57.832 10.219,58.431 9.378 C 59.157 8.359,59.343 8.296,61.634 8.296 C 63.918 8.296,64.115 8.230,64.866 7.214 C 65.609 6.209,65.830 6.132,67.958 6.132 C 70.005 6.132,70.314 6.035,70.841 5.230 C 71.376 4.415,71.667 4.328,73.881 4.328 C 76.183 4.328,76.377 4.264,77.130 3.246 L 77.930 2.164 84.339 2.164 C 90.967 2.164,91.614 2.029,91.614 0.649 C 91.614 0.027,89.677 0.000,45.807 0.000 L 0.000 0.000 0.000 45.807 M106.402 0.649 C 106.402 2.028,107.051 2.164,113.628 2.164 L 119.989 2.164 120.953 3.246 C 121.836 4.238,122.113 4.328,124.251 4.328 C 126.341 4.328,126.645 4.422,127.175 5.230 C 127.698 6.028,128.019 6.132,129.978 6.137 C 132.413 6.143,132.782 6.288,133.412 7.484 C 133.792 8.206,134.115 8.296,136.327 8.296 C 138.679 8.296,138.857 8.355,139.585 9.378 C 140.192 10.229,140.626 10.460,141.626 10.460 C 142.586 10.460,143.128 10.724,143.846 11.542 C 144.544 12.337,145.114 12.624,145.995 12.624 C 147.122 12.624,150.406 15.367,150.406 16.308 C 150.406 16.464,151.001 16.592,151.728 16.592 C 152.866 16.592,153.345 16.892,155.181 18.756 C 156.843 20.444,157.549 20.920,158.391 20.920 C 159.327 20.920,160.978 22.430,170.810 32.281 C 180.589 42.079,182.297 43.643,183.218 43.643 C 184.127 43.643,185.383 44.743,191.660 51.040 L 199.034 58.438 203.174 54.287 C 206.659 50.791,207.489 50.135,208.422 50.135 C 209.031 50.135,209.739 49.884,209.995 49.577 C 210.251 49.270,210.672 48.824,210.931 48.585 C 211.190 48.347,212.164 47.379,213.095 46.434 C 214.026 45.490,214.986 44.516,215.229 44.270 C 215.471 44.024,215.877 43.612,216.131 43.354 C 216.384 43.096,216.890 42.609,217.254 42.272 C 217.618 41.935,218.592 40.960,219.418 40.105 C 220.244 39.250,221.134 38.358,221.396 38.121 C 222.007 37.571,222.964 36.614,223.514 36.004 C 223.750 35.742,224.643 34.852,225.497 34.026 C 226.352 33.200,227.324 32.226,227.657 31.862 C 227.990 31.497,228.477 31.004,228.739 30.766 C 229.001 30.527,229.425 30.081,229.681 29.774 C 229.936 29.467,230.646 29.216,231.258 29.216 C 232.210 29.216,233.125 28.460,237.591 23.986 C 242.226 19.341,242.946 18.756,244.014 18.756 C 244.939 18.756,245.395 18.506,245.987 17.674 C 246.592 16.824,247.029 16.592,248.019 16.592 C 249.078 16.592,249.583 16.274,251.171 14.608 C 252.690 13.014,253.288 12.624,254.211 12.624 C 255.033 12.624,255.634 12.316,256.324 11.542 C 257.078 10.695,257.589 10.460,258.671 10.460 C 259.432 10.460,260.054 10.328,260.054 10.167 C 260.054 9.072,261.603 8.296,263.788 8.296 C 265.883 8.296,266.109 8.216,266.850 7.214 C 267.603 6.196,267.795 6.132,270.106 6.132 C 272.376 6.132,272.593 6.063,272.973 5.230 C 273.353 4.397,273.571 4.328,275.836 4.328 C 278.109 4.328,278.358 4.249,279.238 3.246 L 280.187 2.164 286.322 2.164 C 293.170 2.164,293.598 2.088,293.598 0.863 L 293.598 0.000 200.000 0.000 C 110.109 0.000,106.402 0.026,106.402 0.649 M308.386 0.649 C 308.386 2.030,309.032 2.164,315.669 2.164 L 322.086 2.164 323.051 3.246 C 323.929 4.232,324.216 4.328,326.291 4.328 C 328.321 4.328,328.632 4.426,329.159 5.230 C 329.688 6.038,329.992 6.132,332.085 6.132 C 334.228 6.132,334.498 6.221,335.370 7.214 C 336.235 8.199,336.520 8.296,338.573 8.296 C 340.658 8.296,340.886 8.376,341.626 9.378 C 342.267 10.245,342.694 10.460,343.776 10.460 C 344.865 10.460,345.276 10.670,345.897 11.542 C 346.503 12.393,346.938 12.624,347.937 12.624 C 349.000 12.624,349.520 12.946,351.143 14.608 C 352.641 16.142,353.325 16.592,354.163 16.592 C 354.759 16.592,355.456 16.846,355.712 17.158 C 355.967 17.469,356.483 17.997,356.857 18.330 C 357.231 18.663,357.948 19.382,358.450 19.928 C 359.066 20.599,359.722 20.920,360.475 20.920 C 361.564 20.920,361.790 21.102,366.183 25.524 C 371.262 30.634,378.472 37.802,378.891 38.157 C 379.210 38.426,379.441 39.212,379.441 40.026 C 379.441 41.127,379.601 41.481,380.184 41.666 C 380.593 41.796,381.106 42.294,381.324 42.772 C 381.542 43.251,381.846 43.643,381.998 43.643 C 382.648 43.643,383.408 44.861,383.408 45.901 C 383.408 46.803,383.836 47.437,385.573 49.110 C 387.388 50.859,387.737 51.393,387.737 52.427 C 387.737 53.343,387.968 53.811,388.638 54.250 C 389.338 54.708,389.540 55.148,389.540 56.207 C 389.540 57.308,389.751 57.730,390.622 58.374 C 391.625 59.116,391.704 59.340,391.704 61.448 C 391.704 63.520,391.800 63.808,392.786 64.686 C 393.776 65.568,393.868 65.848,393.868 67.967 C 393.868 70.130,393.940 70.336,394.950 71.055 C 395.959 71.773,396.032 71.982,396.032 74.120 C 396.032 76.375,396.415 77.255,397.559 77.635 C 397.898 77.747,398.063 79.551,398.197 84.610 C 398.375 91.350,398.387 91.435,399.188 91.549 L 400.000 91.664 400.000 45.832 L 400.000 0.000 354.193 0.000 C 310.323 0.000,308.386 0.027,308.386 0.649 M0.000 233.544 L 0.000 360.685 96.844 360.685 C 183.584 360.685,193.688 360.628,193.688 360.133 C 193.688 359.829,191.821 357.721,189.540 355.448 C 186.082 352.003,185.392 351.134,185.392 350.228 C 185.392 349.300,184.473 348.229,179.080 342.877 C 173.726 337.563,172.768 336.450,172.768 335.540 C 172.768 334.497,161.822 322.813,160.845 322.813 C 160.658 322.813,160.505 322.171,160.505 321.385 C 160.505 320.536,160.278 319.768,159.947 319.491 C 159.640 319.235,159.193 318.812,158.955 318.549 C 158.284 317.812,157.359 316.903,156.834 316.464 C 156.572 316.245,155.663 315.353,154.814 314.480 C 153.965 313.608,152.991 312.622,152.650 312.289 C 152.308 311.956,151.834 311.469,151.595 311.207 C 151.357 310.945,150.951 310.538,150.694 310.302 C 150.436 310.067,149.455 309.093,148.514 308.138 C 147.573 307.183,146.558 306.193,146.260 305.937 C 145.961 305.681,145.717 304.977,145.717 304.372 C 145.717 303.430,144.839 302.395,139.585 297.142 C 134.433 291.990,133.454 290.842,133.454 289.952 C 133.454 289.060,132.453 287.891,127.142 282.582 C 121.804 277.246,120.830 276.106,120.830 275.202 C 120.830 274.297,119.860 273.167,114.518 267.844 C 109.131 262.478,108.206 261.397,108.206 260.470 C 108.206 259.543,107.302 258.485,102.074 253.284 C 96.750 247.990,95.942 247.038,95.942 246.060 C 95.942 245.441,95.691 244.724,95.384 244.469 C 95.077 244.213,94.631 243.800,94.392 243.551 C 94.154 243.302,93.177 242.328,92.222 241.387 C 91.268 240.446,90.294 239.465,90.058 239.207 C 89.823 238.950,89.416 238.544,89.154 238.306 C 88.546 237.753,87.841 237.051,85.937 235.106 C 85.096 234.247,84.163 233.334,83.863 233.079 C 83.564 232.823,83.318 232.113,83.318 231.501 C 83.318 230.540,82.457 229.528,77.006 224.090 C 71.647 218.742,70.694 217.629,70.694 216.715 C 70.694 215.795,69.644 214.592,63.481 208.458 C 57.253 202.260,56.267 201.128,56.267 200.180 C 56.267 199.236,55.381 198.204,49.955 192.832 C 44.458 187.389,43.643 186.437,43.643 185.454 C 43.643 184.474,42.839 183.528,37.511 178.231 C 32.331 173.080,31.380 171.969,31.380 171.067 C 31.380 170.084,29.670 168.081,25.532 164.219 C 25.277 163.981,24.877 163.575,24.645 163.318 C 24.412 163.060,23.479 162.147,22.571 161.288 C 21.268 160.055,20.920 159.478,20.920 158.552 C 20.920 157.733,20.620 157.102,19.928 156.466 C 19.382 155.964,18.663 155.247,18.330 154.873 C 17.997 154.499,17.469 153.984,17.158 153.728 C 16.846 153.472,16.592 152.775,16.592 152.179 C 16.592 151.341,16.142 150.657,14.608 149.159 C 12.972 147.562,12.624 147.007,12.624 145.996 C 12.624 145.052,12.375 144.586,11.542 143.970 C 10.671 143.327,10.460 142.904,10.460 141.806 C 10.460 140.709,10.248 140.286,9.378 139.642 C 8.376 138.902,8.296 138.674,8.296 136.589 C 8.296 134.537,8.199 134.251,7.214 133.386 C 6.221 132.515,6.132 132.245,6.132 130.101 C 6.132 128.008,6.038 127.704,5.230 127.175 C 4.422 126.646,4.328 126.341,4.328 124.259 C 4.328 122.093,4.254 121.878,3.246 121.133 L 2.164 120.333 2.164 113.801 C 2.164 107.044,2.033 106.402,0.649 106.402 C 0.025 106.402,0.000 111.352,0.000 233.544 M398.647 106.641 C 398.310 106.777,398.197 108.487,398.197 113.455 L 398.197 120.087 397.115 120.887 C 396.121 121.621,396.032 121.865,396.027 123.873 C 396.021 126.281,395.874 126.652,394.680 127.281 C 393.958 127.661,393.868 127.983,393.868 130.196 C 393.868 132.548,393.810 132.725,392.786 133.454 C 391.767 134.179,391.704 134.365,391.704 136.656 C 391.704 138.941,391.638 139.138,390.622 139.889 C 389.789 140.505,389.540 140.971,389.540 141.914 C 389.540 142.792,389.284 143.341,388.638 143.849 C 388.005 144.347,387.737 144.909,387.737 145.738 C 387.737 146.703,387.342 147.306,385.573 149.049 C 383.858 150.737,383.408 151.410,383.408 152.290 C 383.408 153.165,382.990 153.799,381.425 155.290 C 379.853 156.789,379.441 157.414,379.441 158.300 C 379.441 159.281,378.391 160.464,370.965 167.857 C 363.496 175.292,362.489 176.430,362.489 177.428 C 362.489 178.369,362.017 179.011,359.693 181.238 C 358.156 182.711,356.774 184.046,356.622 184.203 C 356.203 184.640,351.036 189.837,350.508 190.354 C 346.378 194.396,345.897 194.991,345.897 196.063 C 345.897 196.815,345.576 197.471,344.905 198.088 C 344.360 198.590,343.641 199.306,343.308 199.680 C 342.974 200.055,342.487 200.556,342.226 200.794 C 341.964 201.033,341.557 201.439,341.321 201.696 C 341.086 201.953,340.112 202.934,339.157 203.876 C 338.202 204.817,337.226 205.791,336.988 206.040 C 336.749 206.289,336.343 206.687,336.086 206.926 C 335.828 207.164,335.428 207.570,335.195 207.828 C 334.963 208.085,333.948 209.083,332.941 210.044 C 331.933 211.006,331.109 211.914,331.109 212.061 C 331.109 212.208,330.703 212.513,330.207 212.739 C 329.485 213.068,329.306 213.412,329.306 214.470 C 329.306 215.713,328.816 216.279,321.010 224.055 C 313.840 231.197,312.714 232.467,312.714 233.410 C 312.714 234.352,311.586 235.625,304.418 242.772 C 297.241 249.929,296.123 251.191,296.123 252.137 C 296.123 253.088,294.894 254.454,286.745 262.565 C 278.654 270.619,277.367 272.048,277.367 272.978 C 277.367 273.905,276.175 275.246,268.891 282.517 C 260.921 290.473,260.415 291.057,260.415 292.296 C 260.415 293.351,260.235 293.695,259.513 294.024 C 259.017 294.250,258.611 294.552,258.611 294.696 C 258.611 294.839,257.868 295.666,256.959 296.532 C 255.139 298.266,254.324 299.073,253.669 299.794 C 253.431 300.056,253.025 300.463,252.768 300.699 C 252.510 300.934,251.529 301.908,250.588 302.863 C 249.647 303.817,248.673 304.794,248.424 305.032 C 248.175 305.271,247.774 305.677,247.532 305.934 C 247.291 306.192,246.359 307.133,245.461 308.025 C 244.252 309.228,243.828 309.929,243.826 310.731 C 243.823 311.765,243.302 312.407,239.212 316.409 C 238.685 316.925,233.518 322.123,233.098 322.559 C 232.947 322.717,231.564 324.052,230.027 325.525 C 227.702 327.753,227.232 328.394,227.232 329.336 C 227.232 330.334,226.242 331.456,218.936 338.738 C 211.814 345.835,210.640 347.158,210.640 348.083 C 210.640 348.988,209.809 349.989,205.410 354.379 C 202.534 357.250,200.180 359.844,200.180 360.142 C 200.180 360.624,211.371 360.685,300.090 360.685 L 400.000 360.685 400.000 233.544 C 400.000 132.056,399.909 106.408,399.549 106.431 C 399.301 106.446,398.895 106.541,398.647 106.641 " stroke="none" fill="#fcfcfc" fill-rule="evenodd"></path><path id="path1" d="M91.614 0.649 C 91.614 2.029,90.967 2.164,84.339 2.164 L 77.930 2.164 77.130 3.246 C 76.377 4.264,76.183 4.328,73.881 4.328 C 71.667 4.328,71.376 4.415,70.841 5.230 C 70.314 6.035,70.005 6.132,67.958 6.132 C 65.830 6.132,65.609 6.209,64.866 7.214 C 64.115 8.230,63.918 8.296,61.634 8.296 C 59.343 8.296,59.157 8.359,58.431 9.378 C 57.832 10.219,57.386 10.460,56.425 10.460 C 55.508 10.460,54.943 10.738,54.226 11.542 C 53.475 12.385,52.960 12.624,51.892 12.624 C 50.925 12.624,50.416 12.822,50.162 13.295 C 49.319 14.871,47.180 16.592,46.064 16.592 C 45.174 16.592,44.529 17.028,42.865 18.756 C 41.209 20.474,40.553 20.920,39.677 20.920 C 38.009 20.920,20.920 38.003,20.920 39.671 C 20.920 40.554,20.479 41.204,18.756 42.865 C 16.978 44.578,16.592 45.160,16.592 46.128 C 16.592 47.261,16.094 47.879,13.075 50.494 C 12.827 50.709,12.624 51.435,12.624 52.107 C 12.624 53.250,12.443 53.547,11.013 54.748 C 10.709 55.004,10.460 55.770,10.460 56.451 C 10.460 57.407,10.214 57.870,9.378 58.488 C 8.365 59.237,8.296 59.441,8.296 61.677 C 8.296 63.914,8.227 64.117,7.214 64.866 C 6.206 65.611,6.132 65.826,6.132 67.992 C 6.132 70.074,6.037 70.379,5.230 70.908 C 4.414 71.442,4.328 71.733,4.328 73.957 C 4.328 76.278,4.267 76.460,3.246 77.187 L 2.164 77.957 2.164 84.215 C 2.164 91.191,2.090 91.614,0.863 91.614 L 0.000 91.614 0.000 99.008 C 0.000 105.888,0.045 106.402,0.649 106.402 C 2.033 106.402,2.164 107.044,2.164 113.801 L 2.164 120.333 3.246 121.133 C 4.254 121.878,4.328 122.093,4.328 124.259 C 4.328 126.341,4.422 126.646,5.230 127.175 C 6.038 127.704,6.132 128.008,6.132 130.101 C 6.132 132.245,6.221 132.515,7.214 133.386 C 8.199 134.251,8.296 134.537,8.296 136.589 C 8.296 138.674,8.376 138.902,9.378 139.642 C 10.248 140.286,10.460 140.709,10.460 141.806 C 10.460 142.904,10.671 143.327,11.542 143.970 C 12.375 144.586,12.624 145.052,12.624 145.996 C 12.624 147.007,12.972 147.562,14.608 149.159 C 16.142 150.657,16.592 151.341,16.592 152.179 C 16.592 152.775,16.846 153.472,17.158 153.728 C 17.469 153.984,17.997 154.499,18.330 154.873 C 18.663 155.247,19.382 155.964,19.928 156.466 C 20.620 157.102,20.920 157.733,20.920 158.552 C 20.920 159.478,21.268 160.055,22.571 161.288 C 23.479 162.147,24.412 163.060,24.645 163.318 C 24.877 163.575,25.277 163.981,25.532 164.219 C 29.670 168.081,31.380 170.084,31.380 171.067 C 31.380 171.969,32.331 173.080,37.511 178.231 C 42.839 183.528,43.643 184.474,43.643 185.454 C 43.643 186.437,44.458 187.389,49.955 192.832 C 55.381 198.204,56.267 199.236,56.267 200.180 C 56.267 201.128,57.253 202.260,63.481 208.458 C 69.644 214.592,70.694 215.795,70.694 216.715 C 70.694 217.629,71.647 218.742,77.006 224.090 C 82.457 229.528,83.318 230.540,83.318 231.501 C 83.318 232.113,83.564 232.823,83.863 233.079 C 84.163 233.334,85.096 234.247,85.937 235.106 C 87.841 237.051,88.546 237.753,89.154 238.306 C 89.416 238.544,89.823 238.950,90.058 239.207 C 90.294 239.465,91.268 240.446,92.222 241.387 C 93.177 242.328,94.154 243.302,94.392 243.551 C 94.631 243.800,95.077 244.213,95.384 244.469 C 95.691 244.724,95.942 245.441,95.942 246.060 C 95.942 247.038,96.750 247.990,102.074 253.284 C 107.302 258.485,108.206 259.543,108.206 260.470 C 108.206 261.397,109.131 262.478,114.518 267.844 C 119.860 273.167,120.830 274.297,120.830 275.202 C 120.830 276.106,121.804 277.246,127.142 282.582 C 132.453 287.891,133.454 289.060,133.454 289.952 C 133.454 290.842,134.433 291.990,139.585 297.142 C 144.839 302.395,145.717 303.430,145.717 304.372 C 145.717 304.977,145.961 305.681,146.260 305.937 C 146.558 306.193,147.573 307.183,148.514 308.138 C 149.455 309.093,150.436 310.067,150.694 310.302 C 150.951 310.538,151.357 310.945,151.595 311.207 C 152.266 311.945,153.191 312.854,153.716 313.292 C 153.978 313.511,154.887 314.404,155.736 315.276 C 156.585 316.148,157.559 317.134,157.900 317.467 C 158.242 317.800,158.716 318.287,158.955 318.549 C 159.193 318.812,159.640 319.235,159.947 319.491 C 160.278 319.768,160.505 320.536,160.505 321.385 C 160.505 322.171,160.658 322.813,160.845 322.813 C 161.822 322.813,172.768 334.497,172.768 335.540 C 172.768 336.450,173.726 337.563,179.080 342.877 C 184.473 348.229,185.392 349.300,185.392 350.228 C 185.392 351.134,186.082 352.003,189.540 355.448 C 191.821 357.721,193.688 359.829,193.688 360.133 C 193.688 360.588,194.259 360.685,196.934 360.685 C 199.584 360.685,200.180 360.586,200.180 360.142 C 200.180 359.844,202.534 357.250,205.410 354.379 C 209.809 349.989,210.640 348.988,210.640 348.083 C 210.640 347.158,211.814 345.835,218.936 338.738 C 226.242 331.456,227.232 330.334,227.232 329.336 C 227.232 328.394,227.702 327.753,230.027 325.525 C 231.564 324.052,232.947 322.717,233.098 322.559 C 233.518 322.123,238.685 316.925,239.212 316.409 C 243.302 312.407,243.823 311.765,243.826 310.731 C 243.828 309.929,244.252 309.228,245.461 308.025 C 246.359 307.133,247.291 306.192,247.532 305.934 C 247.774 305.677,248.175 305.271,248.424 305.032 C 248.673 304.794,249.647 303.817,250.588 302.863 C 251.529 301.908,252.510 300.934,252.768 300.699 C 253.025 300.463,253.431 300.056,253.669 299.794 C 254.324 299.073,255.139 298.266,256.959 296.532 C 257.868 295.666,258.611 294.839,258.611 294.696 C 258.611 294.552,259.017 294.250,259.513 294.024 C 260.235 293.695,260.415 293.351,260.415 292.296 C 260.415 291.057,260.921 290.473,268.891 282.517 C 276.175 275.246,277.367 273.905,277.367 272.978 C 277.367 272.048,278.654 270.619,286.745 262.565 C 294.894 254.454,296.123 253.088,296.123 252.137 C 296.123 251.191,297.241 249.929,304.418 242.772 C 311.586 235.625,312.714 234.352,312.714 233.410 C 312.714 232.467,313.840 231.197,321.010 224.055 C 328.816 216.279,329.306 215.713,329.306 214.470 C 329.306 213.412,329.485 213.068,330.207 212.739 C 330.703 212.513,331.109 212.208,331.109 212.061 C 331.109 211.914,331.933 211.006,332.941 210.044 C 333.948 209.083,334.963 208.085,335.195 207.828 C 335.428 207.570,335.828 207.164,336.086 206.926 C 336.343 206.687,336.749 206.289,336.988 206.040 C 337.226 205.791,338.202 204.817,339.157 203.876 C 340.112 202.934,341.086 201.953,341.321 201.696 C 341.557 201.439,341.964 201.033,342.226 200.794 C 342.487 200.556,342.974 200.055,343.308 199.680 C 343.641 199.306,344.360 198.590,344.905 198.088 C 345.576 197.471,345.897 196.815,345.897 196.063 C 345.897 194.991,346.378 194.396,350.508 190.354 C 351.036 189.837,356.203 184.640,356.622 184.203 C 356.774 184.046,358.156 182.711,359.693 181.238 C 362.017 179.011,362.489 178.369,362.489 177.428 C 362.489 176.430,363.496 175.292,370.965 167.857 C 378.391 160.464,379.441 159.281,379.441 158.300 C 379.441 157.414,379.853 156.789,381.425 155.290 C 382.990 153.799,383.408 153.165,383.408 152.290 C 383.408 151.410,383.858 150.737,385.573 149.049 C 387.342 147.306,387.737 146.703,387.737 145.738 C 387.737 144.909,388.005 144.347,388.638 143.849 C 389.284 143.341,389.540 142.792,389.540 141.914 C 389.540 140.971,389.789 140.505,390.622 139.889 C 391.638 139.138,391.704 138.941,391.704 136.656 C 391.704 134.365,391.767 134.179,392.786 133.454 C 393.810 132.725,393.868 132.548,393.868 130.196 C 393.868 127.983,393.958 127.661,394.680 127.281 C 395.874 126.652,396.021 126.281,396.027 123.873 C 396.032 121.865,396.121 121.621,397.115 120.887 L 398.197 120.087 398.197 113.432 L 398.197 106.777 399.098 106.550 L 400.000 106.324 400.000 98.994 C 400.000 91.667,400.000 91.664,399.188 91.549 C 398.387 91.435,398.375 91.350,398.197 84.610 C 398.063 79.551,397.898 77.747,397.559 77.635 C 396.415 77.255,396.032 76.375,396.032 74.120 C 396.032 71.982,395.959 71.773,394.950 71.055 C 393.940 70.336,393.868 70.130,393.868 67.967 C 393.868 65.848,393.776 65.568,392.786 64.686 C 391.800 63.808,391.704 63.520,391.704 61.448 C 391.704 59.340,391.625 59.116,390.622 58.374 C 389.751 57.730,389.540 57.308,389.540 56.207 C 389.540 55.148,389.338 54.708,388.638 54.250 C 387.968 53.811,387.737 53.343,387.737 52.427 C 387.737 51.393,387.388 50.859,385.573 49.110 C 383.836 47.437,383.408 46.803,383.408 45.901 C 383.408 44.861,382.648 43.643,381.998 43.643 C 381.846 43.643,381.542 43.251,381.324 42.772 C 381.106 42.294,380.593 41.796,380.184 41.666 C 379.601 41.481,379.441 41.127,379.441 40.026 C 379.441 39.212,379.210 38.426,378.891 38.157 C 378.472 37.802,371.262 30.634,366.183 25.524 C 361.790 21.102,361.564 20.920,360.475 20.920 C 359.722 20.920,359.066 20.599,358.450 19.928 C 357.948 19.382,357.231 18.663,356.857 18.330 C 356.483 17.997,355.967 17.469,355.712 17.158 C 355.456 16.846,354.759 16.592,354.163 16.592 C 353.325 16.592,352.641 16.142,351.143 14.608 C 349.520 12.946,349.000 12.624,347.937 12.624 C 346.938 12.624,346.503 12.393,345.897 11.542 C 345.276 10.670,344.865 10.460,343.776 10.460 C 342.694 10.460,342.267 10.245,341.626 9.378 C 340.886 8.376,340.658 8.296,338.573 8.296 C 336.520 8.296,336.235 8.199,335.370 7.214 C 334.498 6.221,334.228 6.132,332.085 6.132 C 329.992 6.132,329.688 6.038,329.159 5.230 C 328.632 4.426,328.321 4.328,326.291 4.328 C 324.216 4.328,323.929 4.232,323.051 3.246 L 322.086 2.164 315.669 2.164 C 309.032 2.164,308.386 2.030,308.386 0.649 C 308.386 0.045,307.872 0.000,300.992 0.000 L 293.598 0.000 293.598 0.863 C 293.598 2.088,293.170 2.164,286.322 2.164 L 280.187 2.164 279.238 3.246 C 278.358 4.249,278.109 4.328,275.836 4.328 C 273.571 4.328,273.353 4.397,272.973 5.230 C 272.593 6.063,272.376 6.132,270.106 6.132 C 267.795 6.132,267.603 6.196,266.850 7.214 C 266.109 8.216,265.883 8.296,263.788 8.296 C 261.603 8.296,260.054 9.072,260.054 10.167 C 260.054 10.328,259.432 10.460,258.671 10.460 C 257.589 10.460,257.078 10.695,256.324 11.542 C 255.634 12.316,255.033 12.624,254.211 12.624 C 253.288 12.624,252.690 13.014,251.171 14.608 C 249.583 16.274,249.078 16.592,248.019 16.592 C 247.029 16.592,246.592 16.824,245.987 17.674 C 245.395 18.506,244.939 18.756,244.014 18.756 C 242.946 18.756,242.226 19.341,237.591 23.986 C 233.125 28.460,232.210 29.216,231.258 29.216 C 230.646 29.216,229.936 29.467,229.681 29.774 C 229.425 30.081,229.001 30.527,228.739 30.766 C 228.477 31.004,227.990 31.497,227.657 31.862 C 227.324 32.226,226.352 33.200,225.497 34.026 C 224.643 34.852,223.750 35.742,223.514 36.004 C 222.964 36.614,222.007 37.571,221.396 38.121 C 221.134 38.358,220.244 39.250,219.418 40.105 C 218.592 40.960,217.618 41.932,217.254 42.265 C 216.890 42.598,216.393 43.085,216.151 43.347 C 215.908 43.609,215.538 43.986,215.328 44.184 C 215.118 44.382,214.148 45.356,213.174 46.348 C 212.199 47.340,211.190 48.347,210.931 48.585 C 210.672 48.824,210.251 49.270,209.995 49.577 C 209.739 49.884,209.031 50.135,208.422 50.135 C 207.489 50.135,206.659 50.791,203.174 54.287 L 199.034 58.438 191.660 51.040 C 185.383 44.743,184.127 43.643,183.218 43.643 C 182.297 43.643,180.589 42.079,170.810 32.281 C 160.978 22.430,159.327 20.920,158.391 20.920 C 157.549 20.920,156.843 20.444,155.181 18.756 C 153.345 16.892,152.866 16.592,151.728 16.592 C 151.001 16.592,150.406 16.464,150.406 16.308 C 150.406 15.367,147.122 12.624,145.995 12.624 C 145.114 12.624,144.544 12.337,143.846 11.542 C 143.128 10.724,142.586 10.460,141.626 10.460 C 140.626 10.460,140.192 10.229,139.585 9.378 C 138.857 8.355,138.679 8.296,136.327 8.296 C 134.115 8.296,133.792 8.206,133.412 7.484 C 132.782 6.288,132.413 6.143,129.978 6.137 C 128.019 6.132,127.698 6.028,127.175 5.230 C 126.645 4.422,126.341 4.328,124.251 4.328 C 122.113 4.328,121.836 4.238,120.953 3.246 L 119.989 2.164 113.628 2.164 C 107.051 2.164,106.402 2.028,106.402 0.649 C 106.402 0.045,105.888 0.000,99.008 0.000 C 92.128 0.000,91.614 0.045,91.614 0.649 " stroke="none" fill="#040404" fill-rule="evenodd"></path></g></svg>